<svg xmlns="http://www.w3.org/2000/svg" viewBox="0 0 24 24" width="64" height="64"><defs><filter id="blue-glow" x="-25%" y="-25%" width="150%" height="150%"><feGaussianBlur stdDeviation="2.5" result="coloredBlur"/><feMerge><feMergeNode in="coloredBlur"/><feMergeNode in="SourceGraphic"/></feMerge></filter></defs><g fill="none" stroke-linecap="round" stroke-linejoin="round"><g stroke="#FFFFFF" stroke-width="2.5"><rect x="4" y="2" width="16" height="20" rx="2"/><path d="M8 6h8M16 14h.01M12 14h.01M8 14h.01M16 10h.01M12 10h.01M8 10h.01M16 18h.01M12 18h.01M8 18h.01"/></g><g stroke="#1E90FF" stroke-width="2" filter="url(#blue-glow)"><rect x="4" y="2" width="16" height="20" rx="2"/><path d="M8 6h8M16 14h.01M12 14h.01M8 14h.01M16 10h.01M12 10h.01M8 10h.01M16 18h.01M12 18h.01M8 18h.01"/></g></g></svg>
