<svg xmlns="http://www.w3.org/2000/svg" viewBox="0 0 24 24" width="64" height="64"><defs><filter id="blue-glow" x="-25%" y="-25%" width="150%" height="150%"><feGaussianBlur stdDeviation="2.5" result="coloredBlur"/><feMerge><feMergeNode in="coloredBlur"/><feMergeNode in="SourceGraphic"/></feMerge></filter></defs><g fill="none" stroke-linecap="round" stroke-linejoin="round"><g stroke="#FFFFFF" stroke-width="2.5"><path d="M18 11V6a2 2 0 0 0-2-2v0a2 2 0 0 0-2-2v0a2 2 0 0 0-2-2h-2a2 2 0 0 0-2 2v11"/><path d="M14 11V4a2 2 0 0 0-4 0v7"/><path d="M10 11V2a2 2 0 0 0-4 0v14"/><path d="M6 14.5V11a2 2 0 0 0-4 0v2.5a5.5 5.5 0 0 0 5.5 5.5h4.5a7 7 0 0 0 7-7V11"/></g><g stroke="#1E90FF" stroke-width="2" filter="url(#blue-glow)"><path d="M18 11V6a2 2 0 0 0-2-2v0a2 2 0 0 0-2-2v0a2 2 0 0 0-2-2h-2a2 2 0 0 0-2 2v11"/><path d="M14 11V4a2 2 0 0 0-4 0v7"/><path d="M10 11V2a2 2 0 0 0-4 0v14"/><path d="M6 14.5V11a2 2 0 0 0-4 0v2.5a5.5 5.5 0 0 0 5.5 5.5h4.5a7 7 0 0 0 7-7V11"/></g></g></svg>
