<svg xmlns="http://www.w3.org/2000/svg" viewBox="0 0 24 24" width="64" height="64"><defs><filter id="blue-glow" x="-25%" y="-25%" width="150%" height="150%"><feGaussianBlur stdDeviation="2.5" result="coloredBlur"/><feMerge><feMergeNode in="coloredBlur"/><feMergeNode in="SourceGraphic"/></feMerge></filter></defs><g fill="none" stroke-linecap="round" stroke-linejoin="round"><g stroke="#FFFFFF" stroke-width="2.5"><path d="M10 13a5 5 0 0 0 7.54.54l3-3a5 5 0 0 0-7.07-7.07l-1.72 1.71M14 11a5 5 0 0 0-7.54-.54l-3 3a5 5 0 0 0 7.07 7.07l1.71-1.71"/></g><g stroke="#1E90FF" stroke-width="2" filter="url(#blue-glow)"><path d="M10 13a5 5 0 0 0 7.54.54l3-3a5 5 0 0 0-7.07-7.07l-1.72 1.71M14 11a5 5 0 0 0-7.54-.54l-3 3a5 5 0 0 0 7.07 7.07l1.71-1.71"/></g></g></svg>
