<svg xmlns="http://www.w3.org/2000/svg" viewBox="0 0 400 300" width="100%" height="100%">
  <defs>
    <filter id="neon-glow" x="-50%" y="-50%" width="200%" height="200%">
      <feGaussianBlur stdDeviation="2.5" result="tightBlur" />
      <feGaussianBlur stdDeviation="8" result="wideBlur" />
      <feMerge>
        <feMergeNode in="wideBlur" />
        <feMergeNode in="tightBlur" />
        <feMergeNode in="SourceGraphic" />
      </feMerge>
    </filter>
  </defs>

  <rect width="100%" height="100%" fill="#121212" rx="12" />

  <g fill="none" stroke-linecap="round" stroke-linejoin="round">
    <path d="M 155 120 L 245 120 A 45 45 0 0 0 155 120 A 45 45 0 0 0 235 145"
          stroke="#FFFFFF" stroke-width="12" />
    <path d="M 155 120 L 245 120 A 45 45 0 0 0 155 120 A 45 45 0 0 0 235 145"
          stroke="#1E90FF" stroke-width="6" filter="url(#neon-glow)" />
    <path d="M 155 120 L 245 120 A 45 45 0 0 0 155 120 A 45 45 0 0 0 235 145"
          stroke="#FFFFFF" stroke-width="1.5" filter="url(#neon-glow)" opacity="0.9" />
  </g>
</svg>
