<svg xmlns="http://www.w3.org/2000/svg" viewBox="0 0 24 24" width="64" height="64"><defs><filter id="blue-glow" x="-25%" y="-25%" width="150%" height="150%"><feGaussianBlur stdDeviation="2.5" result="coloredBlur"/><feMerge><feMergeNode in="coloredBlur"/><feMergeNode in="SourceGraphic"/></feMerge></filter></defs><g fill="none" stroke-linecap="round" stroke-linejoin="round"><g stroke="#FFFFFF" stroke-width="2.5"><path d="M14 2H6a2 2 0 0 0-2 2v16a2 2 0 0 0 2 2h12a2 2 0 0 0 2-2V8z"/><polyline points="14 2 14 8 20 8"/><line x1="16" y1="13" x2="8" y2="13"/><line x1="16" y1="17" x2="8" y2="17"/><polyline points="10 9 9 9 8 9"/></g><g stroke="#1E90FF" stroke-width="2" filter="url(#blue-glow)"><path d="M14 2H6a2 2 0 0 0-2 2v16a2 2 0 0 0 2 2h12a2 2 0 0 0 2-2V8z"/><polyline points="14 2 14 8 20 8"/><line x1="16" y1="13" x2="8" y2="13"/><line x1="16" y1="17" x2="8" y2="17"/><polyline points="10 9 9 9 8 9"/></g></g></svg>
