<svg xmlns="http://www.w3.org/2000/svg" viewBox="0 0 24 24" width="64" height="64"><defs><filter id="blue-glow" x="-25%" y="-25%" width="150%" height="150%"><feGaussianBlur stdDeviation="2.5" result="coloredBlur"/><feMerge><feMergeNode in="coloredBlur"/><feMergeNode in="SourceGraphic"/></feMerge></filter></defs><g fill="none" stroke-linecap="round" stroke-linejoin="round"><g stroke="#FFFFFF" stroke-width="2.5"><path d="M9 18h6M10 22h4M15.09 14c.18-.98.65-1.74 1.41-2.5A6 6 0 1 0 7.5 11.5c.76.76 1.23 1.52 1.41 2.5Z"/></g><g stroke="#1E90FF" stroke-width="2" filter="url(#blue-glow)"><path d="M9 18h6M10 22h4M15.09 14c.18-.98.65-1.74 1.41-2.5A6 6 0 1 0 7.5 11.5c.76.76 1.23 1.52 1.41 2.5Z"/></g></g></svg>
